<?xml version="1.0" encoding="UTF-8" standalone="no"?>
<svg
   xmlns:dc="http://purl.org/dc/elements/1.1/"
   xmlns:cc="http://creativecommons.org/ns#"
   xmlns:rdf="http://www.w3.org/1999/02/22-rdf-syntax-ns#"
   xmlns:svg="http://www.w3.org/2000/svg"
   xmlns="http://www.w3.org/2000/svg"
   xmlns:sodipodi="http://sodipodi.sourceforge.net/DTD/sodipodi-0.dtd"
   xmlns:inkscape="http://www.inkscape.org/namespaces/inkscape"
   width="999.99994"
   height="246.34119"
   viewBox="0 0 999.99993 246.3412"
   id="svg4740"
   version="1.1"
   inkscape:version="1.0.2-2 (e86c870879, 2021-01-15)"
   sodipodi:docname="Nintendo_2006.svg"
   inkscape:export-filename="C:\Users\tjdru\OneDrive\Pictures\Logos\Games\nintendologo2006.png"
   inkscape:export-xdpi="96"
   inkscape:export-ydpi="96">
  <defs
     id="defs4742" />
  <sodipodi:namedview
     id="base"
     pagecolor="#ffffff"
     bordercolor="#666666"
     borderopacity="1.0"
     inkscape:pageopacity="0.0"
     inkscape:pageshadow="2"
     inkscape:zoom="0.5"
     inkscape:cx="450.80264"
     inkscape:cy="317.53834"
     inkscape:document-units="px"
     inkscape:current-layer="layer1"
     showgrid="false"
     units="px"
     inkscape:window-width="1366"
     inkscape:window-height="705"
     inkscape:window-x="-8"
     inkscape:window-y="-8"
     inkscape:window-maximized="1"
     inkscape:document-rotation="0"
     inkscape:snap-nodes="true"
     inkscape:snap-bbox="false"
     inkscape:bbox-paths="false"
     inkscape:bbox-nodes="true"
     inkscape:snap-page="false" />
  <metadata
     id="metadata4745">
    <rdf:RDF>
      <cc:Work
         rdf:about="">
        <dc:format>image/svg+xml</dc:format>
        <dc:type
           rdf:resource="http://purl.org/dc/dcmitype/StillImage" />
        <dc:title></dc:title>
      </cc:Work>
    </rdf:RDF>
  </metadata>
  <g
     inkscape:label="Layer 1"
     inkscape:groupmode="layer"
     id="layer1"
     transform="translate(-157.75264,-844.86961)">
    <path
       id="polygon4152"
       style="fill:#989898;fill-opacity:1;stroke:none;stroke-width:0.132792"
       d="m 1065.9287,910.76231 c -9.8531,0 -17.8473,7.99413 -17.8473,17.84725 0,9.85315 7.9942,17.84727 17.8473,17.84727 9.8532,0 17.8473,-7.99412 17.8473,-17.84727 0,-9.85312 -7.9941,-17.84725 -17.8473,-17.84725 z m 0,3.42558 c 7.9675,0 14.4349,6.45407 14.4349,14.43485 0,7.96752 -6.4674,14.43487 -14.4349,14.43487 -7.9675,0 -14.4348,-6.46735 -14.4348,-14.43487 0,-7.9675 6.4673,-14.43485 14.4348,-14.43485 z m -7.3175,4.30305 v 19.77086 h 4.8195 v -8.10017 h 2.3505 l 3.7865,8.10017 h 5.3492 l -4.4216,-8.83008 c 2.6956,-0.67724 4.3162,-2.64106 4.3162,-5.24378 0,-3.78456 -2.8017,-5.697 -8.4454,-5.697 z m 4.8195,3.02768 h 2.1133 c 2.8948,0 4.3136,0.88774 4.3136,2.946 0,1.96533 -1.3277,2.80371 -4.0764,2.80371 h -2.3505 z M 398.78374,909.83301 v 23.6929 h 34.96942 v -23.6929 z m -141.84569,0 v 115.98889 h 35.92819 v -80.87699 l 50.24127,80.87699 h 35.80351 V 909.83301 h -35.83914 l 0.0178,80.877 -49.99193,-80.877 z m 656.35723,0 v 42.71369 c -5.5942,-3.16117 -11.47222,-6.18021 -19.74802,-6.91017 -25.14758,-2.21811 -44.32845,20.01638 -44.32845,40.36875 0,26.85232 20.67716,36.80352 23.8324,38.27012 11.74508,5.4596 26.81768,5.4351 40.15503,-2.9119 l 0.0178,4.4584 h 34.4708 V 909.83301 Z M 573.83862,921.7685 v 15.44995 l -18.94957,0.0356 v 11.43683 h 18.94957 l -0.0178,77.13112 h 34.916 v -77.13112 h 18.87839 v -11.4724 H 608.7368 v -15.44995 z m 436.19028,21.68336 c -28.14873,0 -50.96852,19.35863 -50.96852,43.28063 0,23.90421 22.81979,43.29841 50.96852,43.29841 28.1665,0 50.9537,-19.3942 50.9537,-43.29841 0,-23.922 -22.7872,-43.28063 -50.9537,-43.28063 z m -335.67207,86.98574 c 23.53128,0 43.42247,-13.4267 49.47843,-31.6479 l -34.7557,0.0356 0.0178,4.6899 c 0.0536,14.101 -9.26968,17.2428 -14.41994,17.2428 -5.13248,0 -14.62958,-3.1418 -14.59804,-17.2428 l 0.0356,-15.91298 65.69124,-0.0357 c 0,-23.90424 -23.0875,-43.70511 -51.44933,-43.70512 -28.36184,0 -51.34247,19.35865 -51.34255,43.29845 -4e-5,23.93975 22.9806,43.27765 51.34248,43.27765 z m -186.77372,-81.78232 -34.64885,0.0356 0.0356,77.13112 h 34.61324 l -0.0356,-50.6688 c -0.004,-6.73084 7.04989,-14.19139 16.55118,-14.19139 9.5191,0 15.94863,7.46055 15.94863,14.19139 v 50.6688 h 34.63105 l 0.0152,-42.0014 c 0.0102,-30.52905 -26.24684,-39.04788 -39.30033,-38.67979 -11.50817,0.32452 -21.13254,5.27485 -27.81014,11.63273 z m 283.42126,0 -34.61323,0.0356 v 77.13112 h 34.61323 l -0.0357,-50.6688 c -0.004,-6.73084 7.03209,-14.19139 16.53338,-14.19139 9.5191,0 15.94863,7.46055 15.94863,14.19139 v 50.6688 h 34.66665 v -42.0014 c 0,-30.52905 -26.28237,-39.04738 -39.31799,-38.67979 -11.52578,0.32503 -21.13532,5.27485 -27.79508,11.63273 z m -372.22063,0.0356 v 77.13112 h 34.96942 v -77.13112 z m 625.22286,54.27222 c 0,12.2896 -7.2447,17.3527 -14.2597,17.3527 -6.9972,0 -14.31276,-5.0631 -14.29824,-17.3527 l 0.0386,-32.69275 c 0.0152,-12.25402 7.33344,-17.28137 14.25964,-17.28137 6.9617,0 14.2597,5.02733 14.2597,17.28137 z M 674.67742,953.39862 c 4.52877,-5e-5 9.52158,2.29825 12.23528,7.0497 2.2057,3.86197 2.34479,8.36593 2.29153,15.11455 h -29.08926 c -0.0711,-6.74862 0.0801,-11.25603 2.29153,-15.11455 2.72538,-4.75485 7.72434,-7.04961 12.27092,-7.0497 z m 225.18933,4.72256 c 5.41664,0 13.65709,3.01988 13.65709,14.95426 v 27.45666 c 0,11.9521 -8.24045,15.0225 -13.65709,15.0225 -5.55869,0 -13.67492,-3.0704 -13.67492,-15.0225 v -27.45666 c 0,-11.93438 8.1162,-14.95426 13.67492,-14.95426 z M 288.44371,844.86961 c -78.17745,0 -130.69107,56.01447 -130.69107,123.37615 0,67.39714 52.40878,122.96504 130.7991,122.96504 H 1026.972 c 78.3903,0 130.7806,-55.5679 130.7806,-122.96504 0,-67.36168 -52.5148,-123.37615 -130.6568,-123.37615 z m 0.33728,30.27947 h 737.92481 c 62.0872,0 100.1824,41.62882 100.1824,92.93594 0,51.32488 -37.8463,92.91748 -100.1824,92.91748 H 288.78099 c -62.28283,0 -100.16125,-41.5926 -100.16125,-92.91748 0,-51.30712 38.07406,-92.93594 100.16125,-92.93594 z"
       sodipodi:nodetypes="ccccccccccccccccccccccccccccccccccccccccccccccccccccccccccccccccccccccccccccccccccccccccccccccccccccccccccccccccccccccccccccccccccccccccccccccccccc" />
  </g>
</svg>
